<?xml version="1.0" encoding="UTF-8"?>
<svg width="27px" height="31px" viewBox="0 0 27 31" version="1.1" xmlns="http://www.w3.org/2000/svg" xmlns:xlink="http://www.w3.org/1999/xlink">
    <!-- Generator: Sketch 51.3 (57544) - http://www.bohemiancoding.com/sketch -->
    <title>Combined Shape</title>
    <desc>Created with Sketch.</desc>
    <defs></defs>
    <g id="icons" stroke="none" stroke-width="1" fill="none" fill-rule="evenodd">
        <path d="M26.8194521,25.4816585 C27.1199088,26.360907 26.9449175,27.068466 26.9858589,28.0401627 L26.9848684,28.0401627 C26.9848684,28.0421437 26.9858589,28.0447851 26.9858589,28.0470963 C26.9858589,29.3119859 20.3635957,30.3371705 13.1232501,30.3371705 C5.88224423,30.3371705 0.0127735467,29.3119859 0.013433891,28.0474265 C0.013433891,28.0454454 0.0137640632,28.0437946 0.0137640632,28.0404928 L0.013433891,28.0404928 C0.0550355846,27.0687961 -0.119625494,26.3612372 0.18050101,25.4819887 C0.711417861,23.9305097 4.17393342,22.7983493 5.7485245,22.0964033 C6.52046704,21.750713 7.3941026,21.5433649 7.8556833,21.1930522 C8.32188641,20.8381171 8.39056222,20.0757496 8.98454195,19.5369086 C9.21962454,19.3232872 9.90737317,19.5861042 9.96251192,19.1601821 C10.0453851,18.5133748 9.35631582,18.1092441 9.13477029,17.5046989 C8.90893253,16.8876071 9.07401861,16.9767536 8.90893253,16.2256119 C7.62423261,15.8587906 7.02761149,12.8390359 7.85535313,12.7637567 C7.58857401,11.31265 7.33103972,9.36826605 7.63083605,7.96437398 C7.9458203,5.82419797 10.4491857,4.15847936 13.4920524,4.15847936 C16.4035106,4.15847936 18.8200408,5.68420497 19.2994508,7.6913216 C19.6996194,9.10743004 19.4262369,11.2155794 19.1422888,12.7634265 C19.8607434,12.8284704 19.5219868,15.1000549 18.5819866,15.9413336 C18.2653515,16.020575 17.9414526,16.0889206 17.6050072,16.1334938 C17.2741747,15.8677052 16.8604689,15.7178071 16.4256322,15.7178071 L15.0976797,15.7178071 C14.0576374,15.7178071 13.2114061,16.5630478 13.2114061,17.6017695 C13.2114061,18.6418118 14.0579675,19.4880431 15.0976797,19.4880431 L16.4256322,19.4880431 C16.6785441,19.4880431 16.9218809,19.4355457 17.1470584,19.3417768 C17.3620005,19.4923353 17.8285337,19.3672001 18.0144207,19.5365784 C18.6087306,20.0754194 18.6777366,20.8381171 19.1429491,21.192722 C19.6051902,21.5427045 20.4781654,21.7513733 21.2501079,22.0960731 C22.8256895,22.7980191 26.2891956,23.9301795 26.8194521,25.4816585 Z M4.11714381,16.7816218 C3.19596345,16.7816218 2.44779331,16.0344422 2.44812348,15.1096299 L2.44812348,11.7722496 C2.44812348,11.1079432 2.83838699,10.534104 3.40133054,10.267655 C3.64466743,4.90830036 8.08119089,0.621675067 13.5006369,0.621675067 C18.9200829,0.621675067 23.3566064,4.90830036 23.6022545,10.267655 C24.1642075,10.534104 24.5538107,11.1079432 24.5538107,11.7722496 L24.5538107,15.1092998 C24.5538107,16.0334517 23.8076216,16.7809615 22.8844602,16.7809615 L22.8009266,16.7809615 C22.4691036,16.7809615 22.1617133,16.6829003 21.9025281,16.5151729 C20.7713583,17.3511688 19.1611086,17.9164236 17.3088427,18.0626898 C17.1427661,18.3822965 16.8132543,18.6035119 16.4256322,18.6035119 L15.0976797,18.6035119 C14.5429905,18.6035119 14.0959373,18.1541475 14.0959373,17.6014393 C14.0959373,17.0500518 14.5429905,16.6020082 15.0976797,16.6020082 L16.425302,16.6020082 C16.7769354,16.6020082 17.084986,16.7852537 17.26526,17.0596268 C18.8603218,16.9229355 20.2770906,16.4263566 21.2504381,15.7303536 C21.1744985,15.5375331 21.131246,15.3308453 21.131246,15.1096299 L21.131246,11.7722496 C21.131246,11.1168579 21.5096233,10.5522635 22.0596901,10.2788809 C21.8222963,5.76311612 18.0735215,2.16423945 13.5006369,2.16423945 C8.92775234,2.16423945 5.17996803,5.76344629 4.94191389,10.2788809 C5.49264107,10.5522635 5.87101838,11.1168579 5.87101838,11.7722496 L5.87101838,15.1099601 C5.87101838,16.034112 5.12317841,16.7816218 4.20133771,16.7816218 L4.11714381,16.7816218 Z" id="Combined-Shape" fill="#000000" fill-rule="nonzero"></path>
    </g>
</svg>