<?xml version="1.0" encoding="UTF-8"?>
<svg width="131px" height="131px" viewBox="0 0 131 131" version="1.1" xmlns="http://www.w3.org/2000/svg" xmlns:xlink="http://www.w3.org/1999/xlink">
    <!-- Generator: Sketch 51.3 (57544) - http://www.bohemiancoding.com/sketch -->
    <title>Group</title>
    <desc>Created with Sketch.</desc>
    <defs></defs>
    <g id="Page-1" stroke="none" stroke-width="1" fill="none" fill-rule="evenodd">
        <g id="REQUEST-DEMO" transform="translate(-1695.000000, -265.000000)">
            <g id="Group" transform="translate(1695.000000, 265.000000)">
                <circle id="Oval-3" fill="#FF8926" cx="65.2125511" cy="65.3806129" r="65"></circle>
                <path d="M65.2125511,58.892197 L50.105684,43.7853299 C48.3140947,41.9937406 45.4088574,41.9937406 43.6172681,43.7853299 C41.8256789,45.5769191 41.8256789,48.4821565 43.6172681,50.2737457 L58.7241353,65.3806129 L43.6172681,80.48748 C41.8256789,82.2790693 41.8256789,85.1843066 43.6172681,86.9758959 C45.4088574,88.7674851 48.3140947,88.7674851 50.105684,86.9758959 L65.2125511,71.8690287 L80.3194183,86.9758959 C82.1110075,88.7674851 85.0162449,88.7674851 86.8078341,86.9758959 C88.5994233,85.1843066 88.5994233,82.2790693 86.8078341,80.48748 L71.7009669,65.3806129 L86.8078341,50.2737457 C88.5994233,48.4821565 88.5994233,45.5769191 86.8078341,43.7853299 C85.0162449,41.9937406 82.1110075,41.9937406 80.3194183,43.7853299 L65.2125511,58.892197 Z" id="Shape" fill="#FFFFFF" fill-rule="nonzero"></path>
            </g>
        </g>
    </g>
</svg>