<?xml version="1.0" encoding="UTF-8"?>
<svg width="27px" height="27px" viewBox="0 0 27 27" version="1.1" xmlns="http://www.w3.org/2000/svg" xmlns:xlink="http://www.w3.org/1999/xlink">
    <!-- Generator: Sketch 51.3 (57544) - http://www.bohemiancoding.com/sketch -->
    <title>Shape</title>
    <desc>Created with Sketch.</desc>
    <defs></defs>
    <g id="icons" stroke="none" stroke-width="1" fill="none" fill-rule="evenodd">
        <path d="M13.500001,0 L11.7438079,1.2067588 L9.65407054,0.765261677 L8.48654023,2.55087226 L6.39680289,2.94331414 L6.004361,5.03306718 L4.21875042,6.20058179 L4.6504365,8.29033169 L3.45348875,10.0465248 L4.6504365,11.8125133 L4.21875042,13.8924553 L6.004361,15.0599542 L6.39680289,17.1497229 L8.48654023,17.5519602 L9.65407054,19.3277754 L11.7438079,18.8960893 L13.500001,20.0930371 L15.2561941,18.8960893 L17.3459315,19.3277754 L18.5134618,17.5519602 L20.6031991,17.1497229 L20.995641,15.0599542 L22.7812516,13.8924553 L22.3495655,11.8125133 L23.5465133,10.0465248 L22.3495655,8.29033169 L22.7812516,6.20058179 L20.995641,5.03306718 L20.6031991,2.94331414 L18.5134618,2.55087226 L17.3459315,0.765261677 L15.2561941,1.2067588 L13.500001,0 Z M13.500001,3.13953508 C17.3145989,3.13953508 20.4069782,6.23191435 20.4069782,10.0465248 C20.4069782,13.8611227 17.3145989,16.953502 13.500001,16.953502 C9.6854031,16.953502 6.59302383,13.8611227 6.59302383,10.0465248 C6.59302383,6.23191435 9.6854031,3.13953508 13.500001,3.13953508 Z M17.2281989,6.50472425 L16.5806698,7.19149755 L12.4992742,11.5475993 L10.3604659,9.64425619 L9.65407054,9.01634918 L8.3982565,10.42914 L9.1046519,11.0472516 L11.9302335,13.5588797 L12.6170068,14.1671646 L13.2449138,13.5000134 L17.9542164,8.47675728 L18.6017455,7.78998398 L17.2281989,6.50472425 Z M5.27834352,15.3346635 L0,23.5465257 L4.70930278,22.6046652 L5.96511681,27.0000143 L10.2623555,19.8379499 L9.78159845,19.9360603 C9.53655743,19.989872 9.26354345,19.8798313 9.12427399,19.6711464 L8.10392509,18.1112056 L6.27907032,17.7580079 C6.03302464,17.7113858 5.825313,17.5037055 5.77869122,17.2576288 L5.42549352,15.432774 L5.27834352,15.3346635 Z M21.7216585,15.3346635 L21.5745085,15.432774 L21.2213108,17.2576288 C21.1746573,17.5037055 20.9669768,17.7113858 20.7209317,17.7580079 L18.8960769,18.1112056 L17.875728,19.6711464 C17.7364897,19.8798313 17.4633498,19.989872 17.2184036,19.9360603 L16.7376466,19.8379499 L21.0348852,27.0000143 L22.2906992,22.6046652 L27.0000025,23.5465257 L21.7216585,15.3346635 Z" id="Shape" fill="#000000" fill-rule="nonzero"></path>
    </g>
</svg>