<?xml version="1.0" encoding="UTF-8"?>
<svg width="29px" height="28px" viewBox="0 0 29 28" version="1.1" xmlns="http://www.w3.org/2000/svg" xmlns:xlink="http://www.w3.org/1999/xlink">
    <!-- Generator: Sketch 51.3 (57544) - http://www.bohemiancoding.com/sketch -->
    <title>Combined Shape</title>
    <desc>Created with Sketch.</desc>
    <defs></defs>
    <g id="icons" stroke="none" stroke-width="1" fill="none" fill-rule="evenodd">
        <path d="M17.5731707,25.6097561 C17.5731589,25.7983372 17.3820679,25.9512101 17.1463415,25.9512195 L11.1707317,25.9512195 C10.9350004,25.9512195 10.7439024,25.7983411 10.7439024,25.6097561 C10.7439024,25.4211711 10.9350004,25.2682927 11.1707317,25.2682927 L17.1463415,25.2682927 C17.3820679,25.2683021 17.5731589,25.421175 17.5731707,25.6097561 Z M11.8821138,27.3170732 L16.4349593,27.3170732 C16.6864061,27.3170732 16.8902439,27.4699515 16.8902439,27.6585366 C16.8902439,27.8471216 16.6864061,28 16.4349593,28 L11.8821138,28 C11.6306671,28 11.4268293,27.8471216 11.4268293,27.6585366 C11.4268293,27.4699515 11.6306671,27.3170732 11.8821138,27.3170732 Z M13.5182549,17.7556026 C12.9696147,17.7727306 12.510307,17.3432107 12.4906641,16.7946547 L12.4906641,16.3668502 C12.1934377,16.2771377 11.9060538,16.1575744 11.6329053,16.0099881 L11.3297875,16.3131059 C10.9279656,16.6859189 10.3009135,16.6657842 9.92383686,16.2679607 L9.50248164,15.8444557 C9.1014311,15.4694817 9.07931891,14.8407264 9.45303689,14.4385052 L9.75830445,14.1353874 C9.61109165,13.8620609 9.49154437,13.5747154 9.40144237,13.2776286 L8.97363783,13.2776286 C8.42508292,13.2579834 7.99556431,12.7986771 8.01268994,12.2500378 L8.01268994,11.6524013 C7.9955667,11.1037629 8.42508398,10.6444581 8.97363783,10.6248105 L9.40144237,10.6248105 C9.49154911,10.3277254 9.6110962,10.0403803 9.75830445,9.7670517 L9.45518666,9.46393391 C9.28060636,9.28808354 9.18381256,9.04958362 9.18646522,8.80180429 C9.18985794,8.52194719 9.30339913,8.25470057 9.50248164,8.05798335 L9.92383686,7.63662814 C10.2993892,7.23614078 10.9281705,7.21498911 11.3297875,7.58933316 L11.6329053,7.89245094 C11.9060566,7.74487043 12.1934399,7.62530745 12.4906641,7.53558887 L12.4906641,7.10778434 C12.5103058,6.55922787 12.9696142,6.12970728 13.5182549,6.14683648 L14.1158914,6.14683648 C14.6645321,6.12970728 15.1238405,6.55922787 15.1434822,7.10778434 L15.1434822,7.53558887 C15.4407064,7.62530745 15.7280898,7.74487043 16.0012411,7.89245094 L16.3043589,7.58933316 C16.7057747,7.21543624 17.3337076,7.23559922 17.7103095,7.63447836 L18.1338145,8.05798335 C18.5337691,8.4341003 18.553961,9.06293305 18.1789597,9.46393391 L17.8758419,9.7670517 C18.0230501,10.0403803 18.1425972,10.3277254 18.232704,10.6248105 L18.6605085,10.6248105 C19.2090624,10.6444581 19.6385796,11.1037629 19.6214564,11.6524013 L19.6214564,12.2500378 C19.638582,12.7986771 19.2090634,13.2579834 18.6605085,13.2776286 L18.232704,13.2776286 C18.142602,13.5747154 18.0230547,13.8620609 17.8758419,14.1353874 L18.1789597,14.4385052 C18.5528637,14.8399183 18.5327006,15.467857 18.1338145,15.8444557 L17.7103095,16.265811 C17.3357058,16.665777 16.7083244,16.6878747 16.3065086,16.3152557 L16.0012411,16.0099881 C15.7280925,16.1575744 15.4407086,16.2771377 15.1434822,16.3668502 L15.1434822,16.7946547 C15.1238393,17.3432107 14.6645317,17.7727306 14.1158914,17.7556026 L13.5182549,17.7556026 Z M14.1585366,0.409756098 C14.1585366,0.183454054 14.311415,-1.38570037e-17 14.5,0 C14.688585,1.38570037e-17 14.8414634,0.183454054 14.8414634,0.409756098 L14.8414634,1.63902439 C14.8414634,1.86532643 14.688585,2.04878049 14.5,2.04878049 C14.311415,2.04878049 14.1585366,1.86532643 14.1585366,1.63902439 L14.1585366,0.409756098 Z M8.96291908,1.39863832 C9.0692232,1.35497399 9.18870605,1.35492364 9.2950477,1.39849836 C9.40138935,1.44207309 9.48586592,1.52569817 9.52986872,1.63095251 L10.027961,2.8210796 C10.1194364,3.0401147 10.0143068,3.29107958 9.79306974,3.38181053 C9.57183273,3.47254148 9.31815299,3.36872702 9.226273,3.14985785 L8.72818068,1.95973075 C8.68412196,1.85451897 8.68410164,1.73629443 8.7281242,1.63106782 C8.77214676,1.52584121 8.85660569,1.44223315 8.96291908,1.39863832 Z M6.1491268,6.14634111 C6.01721368,6.14649915 5.89067894,6.09406977 5.7975374,6.00066083 L4.74252554,4.94568035 C4.54897882,4.75140069 4.54927788,4.4371019 4.74319397,4.24319089 C4.93711007,4.04927988 5.25141821,4.04897971 5.44570434,4.24251999 L6.5007162,5.29750047 C6.64290407,5.43971498 6.685434,5.65356912 6.6084783,5.83936289 C6.5315226,6.02515667 6.35023264,6.14631023 6.1491268,6.14634111 Z M3.64945339,8.7260989 C3.86857934,8.81783621 3.97260753,9.07167307 3.88180687,9.2930594 C3.7910062,9.51444573 3.53976103,9.61954702 3.32063508,9.5278097 L2.13033967,9.02970593 C1.91164491,8.93769609 1.8079926,8.68415193 1.89867893,8.46304004 C1.98936526,8.24192816 2.24013835,8.13676166 2.45915153,8.22799513 L3.64944694,8.7260989 Z M0.909756098,14.3414634 C0.683454054,14.3414634 0.5,14.188585 0.5,14 C0.5,13.811415 0.683454054,13.6585366 0.909756098,13.6585366 L2.13902439,13.6585366 C2.36532643,13.6585366 2.54878049,13.811415 2.54878049,14 C2.54878049,14.188585 2.36532643,14.3414634 2.13902439,14.3414634 L0.909756098,14.3414634 Z M3.32080602,18.4721858 C3.53986891,18.3804608 3.79104177,18.485548 3.88181631,18.7069047 C3.97259085,18.9282613 3.86859259,19.1820642 3.6495297,19.2737892 L2.45957679,19.7718262 C2.31786794,19.8311619 2.15559638,19.809598 2.03388822,19.7152573 C1.91218006,19.6209167 1.84952568,19.468132 1.86952637,19.3144556 C1.88952707,19.1607793 1.98914426,19.0295585 2.13085311,18.9702229 L3.32080602,18.4721858 Z M4.74326055,24.4396638 C4.64997279,24.3464232 4.59756051,24.2199334 4.59756098,24.088038 C4.59756144,23.9561425 4.64997462,23.8296531 4.74326304,23.7364132 L5.79838267,22.6812935 C5.9927314,22.4879829 6.30686258,22.4884035 6.50069296,22.6822339 C6.69452335,22.8760642 6.69494394,23.1901954 6.5016333,23.3845442 L5.44651367,24.4396638 C5.35327333,24.5329526 5.22678317,24.5853659 5.09488711,24.5853659 C4.96299105,24.5853659 4.83650089,24.5329526 4.74326055,24.4396638 Z M23.8850018,22.6815954 L24.9403559,23.7369494 C25.1339642,23.9312981 25.1336639,24.2457074 24.9396847,24.439686 C24.7457055,24.6336645 24.4312962,24.6339637 24.2369482,24.4403546 L23.1815966,23.3850031 C22.9879876,23.1906551 22.9882867,22.8762457 23.1822653,22.6822665 C23.3762438,22.4882873 23.6906531,22.487987 23.8850018,22.6815954 Z M25.1180802,18.7068933 C25.2088758,18.4855542 25.4600416,18.3804734 25.6791146,18.472172 L26.8691324,18.9702142 C27.010849,19.0295505 27.1104716,19.1607727 27.1304734,19.3144506 C27.1504752,19.4681285 27.0878174,19.6209148 26.9661026,19.7152564 C26.8443878,19.809598 26.6821074,19.8311622 26.5403908,19.7718259 L25.350373,19.2737837 C25.2451672,19.2297384 25.1615882,19.1452664 25.1180243,19.0389524 C25.0744604,18.9326385 25.0744805,18.8131923 25.1180802,18.7068933 Z M28.0902439,13.6585366 C28.3165459,13.6585366 28.5,13.811415 28.5,14 C28.5,14.188585 28.3165459,14.3414634 28.0902439,14.3414634 L26.8609756,14.3414634 C26.6346736,14.3414634 26.4512195,14.188585 26.4512195,14 C26.4512195,13.811415 26.6346736,13.6585366 26.8609756,13.6585366 L28.0902439,13.6585366 Z M27.1014325,8.46291761 C27.1450314,8.569214 27.1450517,8.68865785 27.1014888,8.79496932 C27.0579259,8.90128079 26.9743488,8.98575008 26.869146,9.02979237 L25.6791937,9.5278151 C25.4601309,9.61953749 25.2089582,9.5144533 25.1181837,9.29310299 C25.0274092,9.07175269 25.1314074,8.81795712 25.3504702,8.72623474 L26.5404225,8.22821201 C26.6456157,8.18412707 26.7638356,8.18409062 26.8690555,8.22811068 C26.9742754,8.27213073 27.0578689,8.35659837 27.1014325,8.46291761 Z M24.9397381,4.2431862 C25.0329789,4.33637783 25.0853654,4.46280218 25.0853659,4.5946298 C25.0853663,4.72645743 25.0329807,4.85288215 24.9397406,4.94607444 L23.8851684,6.00064664 C23.7596227,6.12627136 23.5765841,6.17535756 23.4050266,6.12940816 C23.2334692,6.08345877 23.0994681,5.94945763 23.0535187,5.77790021 C23.0075693,5.60634278 23.0566555,5.42330412 23.1822802,5.2977584 L24.2368524,4.2431862 C24.3300443,4.14994651 24.4564682,4.09756098 24.5882953,4.09756098 C24.7201223,4.09756098 24.8465463,4.14994651 24.9397381,4.2431862 Z M19.4701559,1.63086671 C19.5294963,1.48915059 19.6607276,1.38952829 19.8144163,1.36952656 C19.9681049,1.34952484 20.1209019,1.41218243 20.2152501,1.53389684 C20.3095983,1.65561124 20.331164,1.81789113 20.2718235,1.95960724 L19.7737466,3.14962112 C19.7144061,3.29133723 19.5831748,3.39095952 19.4294861,3.41096124 C19.2757975,3.43096296 19.1230005,3.36830537 19.0286523,3.24659098 C18.9343041,3.12487658 18.9127384,2.9625967 18.9720789,2.82088059 L19.4701559,1.63086671 Z M18.1413117,20.0716382 L18.1226351,20.1288026 C17.8246937,21.1051181 17.7325763,22.1320493 17.8520438,23.1453727 C17.8690464,23.3450592 17.8017787,23.5427848 17.6663449,23.6912129 C17.5490994,23.824323 17.380167,23.9011945 17.2022028,23.9024174 L16.1155958,23.9024174 C15.8755492,23.9024174 15.680953,23.7089533 15.680953,23.4703032 C15.680953,23.2316531 15.8755492,23.0381889 16.1155958,23.0381889 L16.9698189,23.0381889 C16.8670797,21.9684828 16.9778602,20.8891359 17.295801,19.862106 L17.3136213,19.8072469 C17.4721573,19.3164861 17.8021707,18.2957113 18.6245541,18.2952792 L20.4049424,18.2952792 C20.413218,18.2952792 20.4217065,18.2954801 20.4299843,18.2959122 C20.6606462,18.3245615 20.8923638,18.2513959 21.0641282,18.0956791 C21.3601873,17.8108381 21.4421066,17.2660543 21.4539919,16.9818463 C21.1987236,16.5725841 21.1693261,16.0626351 21.375891,15.627058 C21.3895168,15.6026384 21.4055101,15.5796009 21.423643,15.558274 L21.6367201,15.3071919 C21.3775904,14.9824731 21.3245336,14.702273 21.4794598,14.4710249 C21.5113538,14.4236674 21.5523149,14.3830166 21.6000058,14.3513919 C21.6600635,14.3129226 21.7163407,14.2689116 21.7680909,14.2199427 L21.4972889,13.7331812 C21.4794949,13.7013504 21.4658726,13.667386 21.4567541,13.6321161 C21.3523812,13.3223751 21.4046097,12.9816061 21.5970372,12.7168268 C21.7845797,12.496414 22.0546472,12.361861 22.3445034,12.3444243 C22.5236781,12.3097307 22.6926476,12.2352221 22.8387814,12.126468 C22.8292323,12.1129645 22.8201069,12.0979831 22.8124659,12.0870117 L20.8453246,9.2898735 C20.637382,8.95944926 20.4958308,8.59208677 20.4285022,8.20811005 L20.4200136,8.17246062 C20.3953172,8.06787889 20.3680071,7.96421108 20.3380834,7.86145719 C19.3590744,4.50266339 15.6701303,3.22023689 12.533613,3.68885399 C8.49598061,4.30132952 5.50211941,7.73624515 5.46684662,11.7966936 C5.49075731,13.8667925 6.24947333,15.8619475 7.60907722,17.4300028 C9.7708298,19.927312 9.92299826,20.7681264 10.2561954,22.6103094 L10.3139204,22.9276433 C10.320194,22.9663406 10.3329641,23.0037146 10.3516973,23.038204 L13.7250603,23.038204 L13.7250603,18.7170616 C13.7250603,18.4784115 13.9196565,18.2849473 14.1597031,18.2849473 C14.3997497,18.2849473 14.5943459,18.4784115 14.5943459,18.7170616 L14.5943459,23.4703248 C14.5943339,23.7089699 14.3997447,23.9024271 14.1597031,23.902439 L10.3164674,23.902439 C9.88691638,23.902439 9.55011166,23.5806673 9.45864108,23.0829344 L9.40049021,22.76328 C9.07789614,20.9797522 8.95714584,20.312382 6.95031952,17.9937758 C5.45589889,16.2683375 4.62262039,14.0735116 4.59756098,11.7966936 C4.63508139,7.3094946 7.942391,3.51253655 12.4041546,2.83433078 C15.9160947,2.30895764 20.054981,3.78527812 21.1731975,7.62135075 C21.2071532,7.73852285 21.2381382,7.85618684 21.2661523,7.97434272 L21.2746409,8.0102082 C21.320069,8.28658692 21.4159457,8.55237818 21.5575412,8.79446963 L23.5108956,11.5719877 C23.6967422,11.7874398 23.7638299,12.0801171 23.6902293,12.35435 C23.5764854,12.7444757 23.1944757,13.0185571 22.5225613,13.1915713 C22.486944,13.2008279 22.4502802,13.2055077 22.413466,13.2054962 C22.3674588,13.207498 22.3227997,13.2215459 22.2840076,13.2462186 C22.2755009,13.2866532 22.2767371,13.328515 22.2876151,13.3683838 L22.5590496,13.8561998 C22.648081,13.9817795 22.6878594,14.1353876 22.670894,14.2880979 C22.6423048,14.500804 22.5374844,14.6961145 22.3756846,14.8381578 C22.4109146,14.876348 22.4559067,14.9217114 22.5134208,14.9744596 C22.6843038,15.1312813 22.7007633,15.394039 22.5507718,15.5707275 L22.1284381,16.0680392 C22.0862159,16.2666885 22.1331746,16.4737681 22.2570489,16.6351891 C22.2985451,16.7004443 22.321702,16.775559 22.3241121,16.8527241 C22.3279326,16.9748893 22.3423671,18.0644589 21.6721479,18.7132633 C21.3290265,19.0361046 20.8638506,19.198395 20.3930505,19.1595142 L18.6247671,19.1595142 C18.5933576,19.1595142 18.4216563,19.2036114 18.1413117,20.0716382 Z M11.4268293,11.9512195 C11.426752,12.5851753 11.6785557,13.1931881 12.1268302,13.6414625 C12.5751046,14.089737 13.1831174,14.3415407 13.8170732,14.3414634 C15.1371684,14.3414634 16.2073171,13.2713148 16.2073171,11.9512195 C16.2073171,10.6311243 15.1371684,9.56097561 13.8170732,9.56097561 C12.4969779,9.56097561 11.4268293,10.6311243 11.4268293,11.9512195 Z" id="Combined-Shape" fill="#000000" fill-rule="nonzero"></path>
    </g>
</svg>