<?xml version="1.0" encoding="UTF-8"?>
<svg width="33px" height="32px" viewBox="0 0 33 32" version="1.1" xmlns="http://www.w3.org/2000/svg" xmlns:xlink="http://www.w3.org/1999/xlink">
    <!-- Generator: Sketch 51.3 (57544) - http://www.bohemiancoding.com/sketch -->
    <title>black-instagram-logo-3497</title>
    <desc>Created with Sketch.</desc>
    <defs></defs>
    <g id="Page-1" stroke="none" stroke-width="1" fill="none" fill-rule="evenodd">
        <g id="Home-Page" transform="translate(-1455.000000, -7284.000000)" fill="#7F7F7F" fill-rule="nonzero">
            <g id="FOOTER" transform="translate(0.000000, 6634.000000)">
                <g id="Group-5" transform="translate(1455.000000, 649.714615)">
                    <g id="black-instagram-logo-3497" transform="translate(0.057746, 0.433675)">
                        <path d="M22.2454223,31.7084631 L9.97808947,31.7084631 C4.54351002,31.7084631 0.122295759,27.3412933 0.122295759,21.9734965 L0.122295759,9.85611833 C0.122295759,4.48797062 4.54351002,0.120800828 9.97808947,0.120800828 L22.2454223,0.120800828 C27.6796464,0.120800828 32.1008607,4.48797062 32.1008607,9.85611833 L32.1008607,21.9734965 C32.1008607,27.3412933 27.6796464,31.7084631 22.2454223,31.7084631 Z M10.239064,3.14509716 C6.34888906,3.14509716 3.18401827,6.2712809 3.18401827,10.1139028 L3.18401827,21.7156972 C3.18401827,25.557983 6.34888906,28.6841667 10.239064,28.6841667 L21.9844326,28.6841667 C25.8742674,28.6841667 29.0391382,25.557983 29.0391382,21.7156972 L29.0391382,10.1139028 C29.0391382,6.2712809 25.8742674,3.14509716 21.9844326,3.14509716 L10.239064,3.14509716 Z" id="Shape"></path>
                        <path d="M16.2021842,24.8539404 C11.2618512,24.8539404 7.24285621,20.8837222 7.24285621,16.0041303 C7.24285621,11.1245385 11.2622065,7.15432029 16.2021842,7.15432029 C21.1421618,7.15432029 25.1615121,11.1245385 25.1615121,16.0041303 C25.1615121,20.8837222 21.1425171,24.8539404 16.2021842,24.8539404 Z M16.2021842,10.0799614 C12.8950908,10.0799614 10.2047026,12.7374626 10.2047026,16.0041303 C10.2047026,19.2707981 12.8950908,21.9282993 16.2021842,21.9282993 C19.5092775,21.9282993 22.1996657,19.2707981 22.1996657,16.0041303 C22.199995,12.7374626 19.5096067,10.0799614 16.2021842,10.0799614 Z" id="Shape"></path>
                        <ellipse id="Oval" cx="25.1615121" cy="7.15432029" rx="1.73998925" ry="1.7187198"></ellipse>
                    </g>
                </g>
            </g>
        </g>
    </g>
</svg>