<?xml version="1.0" encoding="UTF-8"?>
<svg width="33px" height="33px" viewBox="0 0 33 33" version="1.1" xmlns="http://www.w3.org/2000/svg" xmlns:xlink="http://www.w3.org/1999/xlink">
    <!-- Generator: Sketch 51.3 (57544) - http://www.bohemiancoding.com/sketch -->
    <title>Combined Shape</title>
    <desc>Created with Sketch.</desc>
    <defs></defs>
    <g id="Page-1" stroke="none" stroke-width="1" fill="none" fill-rule="evenodd">
        <g id="Home-Page" transform="translate(-1708.000000, -7284.000000)" fill="#7F7F7F" fill-rule="nonzero">
            <g id="FOOTER" transform="translate(0.000000, 6634.000000)">
                <g id="Group-5" transform="translate(1455.000000, 649.714615)">
                    <path d="M253.586747,11.6310167 L260.377006,11.6310167 L260.377006,33.2048158 L253.586747,33.2048158 L253.586747,11.6310167 Z M256.982059,0.907030213 C259.152306,0.907030213 260.916019,2.6491837 260.916019,4.79649751 C260.916019,6.94165431 259.152306,8.68380779 256.982059,8.68380779 C254.806716,8.68380779 253.048098,6.94165431 253.048098,4.79649751 C253.048098,2.6491837 254.806716,0.907030213 256.982059,0.907030213 Z M264.63452,11.6310167 L271.145627,11.6310167 L271.145627,14.5811016 L271.238435,14.5811016 C272.144676,12.8842455 274.35969,11.0967946 277.661101,11.0967946 C284.535069,11.0967946 285.803806,15.5636244 285.803806,21.3724803 L285.803806,33.2048158 L279.018643,33.2048158 L279.018643,22.713428 C279.018643,20.2109249 278.974605,16.9930099 275.491218,16.9930099 C271.958696,16.9930099 271.419683,19.7205622 271.419683,22.5336763 L271.419683,33.2048158 L264.63452,33.2048158 L264.63452,11.6310167 Z" id="Combined-Shape"></path>
                </g>
            </g>
        </g>
    </g>
</svg>