<?xml version="1.0" encoding="UTF-8"?>
<svg width="35px" height="35px" viewBox="0 0 35 35" version="1.1" xmlns="http://www.w3.org/2000/svg" xmlns:xlink="http://www.w3.org/1999/xlink">
    <!-- Generator: Sketch 51.3 (57544) - http://www.bohemiancoding.com/sketch -->
    <title>Combined Shape</title>
    <desc>Created with Sketch.</desc>
    <defs></defs>
    <g id="icons" stroke="none" stroke-width="1" fill="none" fill-rule="evenodd">
        <path d="M32.4281565,22.5832255 C31.6680217,24.8243608 30.3974692,26.8699914 28.686371,28.5869066 C26.4295995,30.8514272 23.5731634,32.3773996 20.4259713,33 L20,30.9267209 C24.8012102,29.9769407 28.7324733,26.5340089 30.3240838,22.0741194 L28.8336297,22.8344693 L28,20.8704483 L31.4678853,19.1012152 C31.8824952,18.8895061 32.3759158,19.0179352 32.6597909,19.411488 L35,22.6565245 L33.4498898,24 L32.4281565,22.5832255 Z M2.54704849,12.3629276 C3.25206517,10.1469486 4.41852068,8.12330772 5.98333154,6.42191919 C8.06394367,4.15954725 10.6977045,2.63044958 13.599885,2 L14,4.07609754 C9.470387,5.06008559 5.77759397,8.64614675 4.37642194,13.250407 L6.27982107,12.4830922 L7,14.4624306 C7,14.462278 3.1205579,16 3.00016567,16 C2.67493994,16 2.36044152,15.833669 2.16850977,15.5377831 L0,12.1952939 L1.66280442,11 L2.54704849,12.3629276 Z M15.7942024,24.9102714 C15.9910922,25.8393609 15.8524872,26.734984 15.7942024,27.0897286 L18,28.6509961 L15.8317303,32.3489287 L13.3549649,31.2483705 C12.7851276,31.7073501 12.1391816,32.0778879 11.4385607,32.3393024 L11.1683449,35 L6.83173033,35 L6.56143928,32.3393776 C5.86089362,32.0779631 5.21487244,31.7074253 4.64503514,31.2484458 L2.16826967,32.3490039 L0,28.6510713 L2.20579756,27.0898038 C2.08772384,26.3704626 2.08764864,25.6296878 2.20579756,24.9102714 L0,23.3490039 L2.16834488,19.6510713 L4.64511034,20.7516295 C5.21494765,20.2926499 5.86089362,19.9221121 6.56151449,19.6606976 L6.83173033,17 L11.1683449,17 L11.4385607,19.6606976 C12.1391064,19.9221121 12.7851276,20.2926499 13.3549649,20.7516295 L15.8317303,19.6510713 L18,23.3490039 L15.7942024,24.9102714 Z M9.5,30 C11.4299706,30 13,28.4298944 13,26.5 C13,24.5701056 11.4298944,23 9.5,23 C7.57010556,23 6,24.5701056 6,26.5 C6,28.4298944 7.57010556,30 9.5,30 Z M9.5,25 C10.3271306,25 11,25.6728694 11,26.5 C11,27.3271306 10.3271306,28 9.5,28 C8.67286941,28 8,27.3271306 8,26.5 C8,25.6728694 8.67286941,25 9.5,25 Z M32.7942024,7.9101962 C32.9910922,8.83921051 32.8524872,9.73490875 32.7942024,10.0897286 L35,11.6509961 L32.8316551,15.3489287 L30.3548897,14.2483705 C29.7850524,14.7073501 29.1391064,15.0778879 28.4384855,15.3393024 L28.1682697,18 L23.8316551,18 L23.5614393,15.3393024 C22.8608936,15.0778879 22.2148724,14.7073501 21.6450351,14.2483705 L19.1682697,15.3489287 L17,11.6509961 L19.2057976,10.0897286 C19.0877238,9.37038739 19.0876486,8.62961261 19.2057976,7.9101962 L17,6.34892874 L19.1682697,2.65099606 L21.6450351,3.75162945 C22.2148724,3.29264991 22.8608184,2.92211211 23.5614393,2.66069757 L23.8316551,0 L28.1682697,0 L28.4385607,2.66062237 C29.1391064,2.9220369 29.7851276,3.2925747 30.3549649,3.75155425 L32.8317303,2.65099606 L35,6.34892874 L32.7942024,7.9101962 Z M26.5,13 C28.4298944,13 30,11.4298944 30,9.5 C30,7.57010556 28.4298944,6 26.5,6 C24.5701056,6 23,7.57010556 23,9.5 C23,11.4298944 24.5701056,13 26.5,13 Z M26.5,8 C27.3271306,8 28,8.67286941 28,9.5 C28,10.3271306 27.3271306,11 26.5,11 C25.6728694,11 25,10.3271306 25,9.5 C25,8.67286941 25.6728694,8 26.5,8 Z" id="Combined-Shape" fill="#000000" fill-rule="nonzero"></path>
    </g>
</svg>