<?xml version="1.0" encoding="UTF-8"?>
<svg width="1920px" height="1252px" viewBox="0 0 1920 1252" version="1.1" xmlns="http://www.w3.org/2000/svg" xmlns:xlink="http://www.w3.org/1999/xlink">
    <!-- Generator: Sketch 51.3 (57544) - http://www.bohemiancoding.com/sketch -->
    <title>Testimonials</title>
    <desc>Created with Sketch.</desc>
    <defs>
        <linearGradient x1="50%" y1="14.4436165%" x2="50%" y2="97.7571586%" id="linearGradient-1">
            <stop stop-color="#FF7500" offset="0%"></stop>
            <stop stop-color="#FFF3EA" offset="100%"></stop>
        </linearGradient>
    </defs>
    <g id="Page-1" stroke="none" stroke-width="1" fill="none" fill-rule="evenodd">
        <g id="ABOUT" transform="translate(0.000000, -4460.000000)">
            <g id="Testimonials" transform="translate(0.000000, 4449.000000)">
                <text id="What-our-partners-sa" font-family="Montserrat-SemiBold, Montserrat" font-size="50" font-weight="500" fill="#4A4A4A">
                    <tspan x="672.175" y="48.44643">What our partners say</tspan>
                </text>
                <g id="Group-7" transform="translate(0.000000, 155.000000)">
                    <path d="M0,123.989737 L0,116.265748 L288.067101,116.265748 L288.514946,123.989737 L0,123.989737 Z M0,154.837193 L0,143.302274 L289.584175,143.302274 L290.032019,154.837193 L0,154.837193 Z M0,185.269633 L0,173.734714 L291.618628,173.734714 L292.066473,185.269633 L0,185.269633 Z M0,219.542989 L0,208.00807 L293.015011,208.00807 L293.462855,219.542989 L0,219.542989 Z M0,249.122675 L0,237.587756 L294.687142,237.587756 L295.134987,249.122675 L0,249.122675 Z M0,280.772081 L0,269.237162 L296.30049,269.237162 L296.748335,280.772081 L0,280.772081 Z M0,305.907596 L0,294.372677 L297.52159,294.372677 L297.969434,305.907596 L0,305.907596 Z" id="Combined-Shape" fill="url(#linearGradient-1)" opacity="0.5"></path>
                    <text id="Advanced-Velocity-ha" font-family="Montserrat-MediumItalic, Montserrat" font-size="38" font-style="italic" font-weight="400" line-spacing="68" fill="#4A4A4A">
                        <tspan x="335" y="124.978751">Advanced Velocity has successfully integrated with </tspan>
                        <tspan x="335" y="192.978751">Johnson Control Metasys Software through API for </tspan>
                        <tspan x="335" y="260.978751">Home Automation, HVAC and Fire System</tspan>
                    </text>
                    <text id="Johnson-Controls" font-family="Montserrat-Bold, Montserrat" font-size="38" font-weight="bold" line-spacing="68" fill="#4A4A4A">
                        <tspan x="335" y="385.239326">Johnson Controls</tspan>
                    </text>
                    <path d="M372.286019,48.9724127 L372.286019,48.9722394 C368.74588,48.9722394 366.004742,46.2311017 366.004742,42.7479612 L366.004742,19.3937901 C366.004742,10.8292005 371.829316,3.34901365 380.508311,0.779993648 C381.022522,0.608721229 381.536316,0.551764338 382.05013,0.551764338 C384.39136,0.551764338 386.561307,2.09317634 387.246393,4.43440548 C388.102699,7.28943863 386.446984,10.315733 383.59195,11.1720798 C379.652311,12.314093 376.854276,15.7402348 376.854276,19.3946772 L376.854276,21.6784998 L382.963843,21.6784998 C386.390087,21.6784998 389.24512,24.4761264 389.24512,27.9023701 L389.24512,42.7485424 C389.24512,46.1743783 386.446984,48.9724127 382.963843,48.9724127 L372.286019,48.9724127 Z M341.223258,48.9724127 L341.22387,48.9722394 C337.74073,48.9722394 335,46.2311017 335,42.7479612 L335,19.3937901 C335,10.8292005 340.823962,3.34901365 349.502549,0.779993648 C350.016761,0.608721229 350.530554,0.551764338 351.044369,0.551764338 C353.385598,0.551764338 355.555545,2.09317634 356.240631,4.43440548 C357.096937,7.28943863 355.441222,10.315733 352.586188,11.1720798 C348.646549,12.314093 345.848514,15.7402348 345.848514,19.3946772 L345.848514,21.6784998 L351.901082,21.6784998 C355.327326,21.6784998 358.182359,24.4761264 358.182359,27.9023701 L358.182359,42.7485424 C358.182359,46.1743783 355.384223,48.9724127 351.901082,48.9724127 L341.223258,48.9724127 Z" id="Combined-Shape" fill="#FF7500" fill-rule="nonzero"></path>
                </g>
                <g id="Group-8" transform="translate(493.000000, 742.095857)">
                    <path d="M1427,116.033209 L1427,123.757199 L1131.83821,123.757199 L1132.30423,116.033209 L1427,116.033209 Z M1427,143.069735 L1427,154.604654 L1130.25956,154.604654 L1130.72558,143.069735 L1427,143.069735 Z M1427,173.502175 L1427,185.037094 L1128.14254,185.037094 L1128.60856,173.502175 L1427,173.502175 Z M1427,207.775531 L1427,219.31045 L1126.68948,219.31045 L1127.1555,207.775531 L1427,207.775531 Z M1427,237.355217 L1427,248.890136 L1124.94949,248.890136 L1125.41551,237.355217 L1427,237.355217 Z M1427,269.004624 L1427,280.539543 L1123.27066,280.539543 L1123.73668,269.004624 L1427,269.004624 Z M1427,294.140138 L1427,305.675057 L1122,305.675057 L1122.46602,294.140138 L1427,294.140138 Z" id="Combined-Shape" fill="url(#linearGradient-1)" opacity="0.5"></path>
                    <text id="We-would-like-to-tha" font-family="Montserrat-MediumItalic, Montserrat" font-size="38" font-style="italic" font-weight="400" line-spacing="68" fill="#4A4A4A">
                        <tspan x="0" y="124.746213">We would like to thank Advanced Velocity in </tspan>
                        <tspan x="0" y="192.746213">supporting us on this project specially during the </tspan>
                        <tspan x="0" y="260.746213">pandemic period and looking forward for more </tspan>
                        <tspan x="0" y="328.746213">successful stories together</tspan>
                    </text>
                    <text id="Mohammad-Darwish" font-family="Montserrat-SemiBold, Montserrat" font-size="38" font-weight="500" line-spacing="68" fill="#4A4A4A">
                        <tspan x="2" y="419.156919">Mohammad Darwish</tspan>
                    </text>
                    <text id="Fagerhult-Middle-Eas" font-family="Montserrat-Bold, Montserrat" font-size="38" font-weight="bold" line-spacing="68" fill="#4A4A4A">
                        <tspan x="2" y="501.079417">Fagerhult Middle East</tspan>
                    </text>
                    <path d="M39.2860191,48.7398741 L39.2860191,48.7397007 C35.74588,48.7397007 33.0047423,45.998563 33.0047423,42.5154226 L33.0047423,19.1612514 C33.0047423,10.5966618 38.8293158,3.116475 47.5083106,0.547454998 C48.0225225,0.376182579 48.5363163,0.319225688 49.0501305,0.319225688 C51.3913596,0.319225688 53.5613072,1.86063769 54.2463928,4.20186683 C55.1026988,7.05689998 53.4469835,10.0831943 50.5919504,10.9395411 C46.6523105,12.0815544 43.8542761,15.5076961 43.8542761,19.1621385 L43.8542761,21.4459611 L49.9638431,21.4459611 C53.3900868,21.4459611 56.2451199,24.2435877 56.2451199,27.6698314 L56.2451199,42.5160038 C56.2451199,45.9418396 53.4469835,48.7398741 49.9638431,48.7398741 L39.2860191,48.7398741 Z M8.2232585,48.7398741 L8.22387029,48.7397007 C4.74072985,48.7397007 2,45.998563 2,42.5154226 L2,19.1612514 C2,10.5966618 7.82396172,3.116475 16.5025487,0.547454998 C17.0167606,0.376182579 17.5305544,0.319225688 18.0443686,0.319225688 C20.3855977,0.319225688 22.5555453,1.86063769 23.2406309,4.20186683 C24.0969369,7.05689998 22.4412216,10.0831943 19.5861884,10.9395411 C15.6465486,12.0815544 12.8485142,15.5076961 12.8485142,19.1621385 L12.8485142,21.4459611 L18.9010825,21.4459611 C22.3273262,21.4459611 25.1823593,24.2435877 25.1823593,27.6698314 L25.1823593,42.5160038 C25.1823593,45.9418396 22.3842229,48.7398741 18.9010825,48.7398741 L8.2232585,48.7398741 Z" id="Combined-Shape" fill="#FF7500" fill-rule="nonzero"></path>
                </g>
            </g>
        </g>
    </g>
</svg>