<?xml version="1.0" encoding="UTF-8"?>
<svg width="38px" height="31px" viewBox="0 0 38 31" version="1.1" xmlns="http://www.w3.org/2000/svg" xmlns:xlink="http://www.w3.org/1999/xlink">
    <!-- Generator: Sketch 51.3 (57544) - http://www.bohemiancoding.com/sketch -->
    <title>Shape</title>
    <desc>Created with Sketch.</desc>
    <defs></defs>
    <g id="Page-1" stroke="none" stroke-width="1" fill="none" fill-rule="evenodd">
        <g id="Home-Page" transform="translate(-1579.000000, -7285.000000)" fill="#7F7F7F" fill-rule="nonzero">
            <g id="FOOTER" transform="translate(0.000000, 6634.000000)">
                <g id="Group-5" transform="translate(1455.000000, 649.714615)">
                    <path d="M157.902901,10.1118878 C157.902901,9.78447611 157.896272,9.45911072 157.880941,9.13497312 C159.374599,8.06842945 160.673107,6.73750082 161.697744,5.22199384 C160.326728,5.82361287 158.851715,6.22878487 157.304195,6.41172616 C158.883618,5.47614718 160.096361,3.99583696 160.668135,2.23149707 C159.189394,3.0970918 157.552793,3.72695009 155.810538,4.06582121 C154.414248,2.5969704 152.426295,1.67817127 150.226206,1.67817127 C146.000876,1.67817127 142.574372,5.06278989 142.574372,9.23483369 C142.574372,9.82785816 142.641493,10.404512 142.772835,10.9578378 C136.414537,10.6418855 130.776343,7.63460893 127.00346,3.0623043 C126.345919,4.17877826 125.967222,5.47655645 125.967222,6.86068948 C125.967222,9.4824388 127.317936,11.7968304 129.371766,13.1510871 C128.116763,13.1130255 126.937996,12.7725173 125.90673,12.2056858 C125.905073,12.2371991 125.905073,12.2687125 125.905073,12.3018629 C125.905073,15.9623259 128.542693,19.0174865 132.042948,19.7103716 C131.400323,19.8830812 130.724137,19.9759843 130.025993,19.9759843 C129.532941,19.9759843 129.053561,19.9276911 128.587855,19.8396992 C129.561944,22.8420646 132.386013,25.0267193 135.735037,25.0885183 C133.116061,27.1156061 129.817585,28.323346 126.233222,28.323346 C125.615871,28.323346 125.006807,28.2885585 124.408101,28.2185743 C127.794,30.3623025 131.814238,31.6134245 136.135279,31.6134245 C150.207562,31.6134245 157.902901,20.0975359 157.902901,10.1118878 Z" id="Shape"></path>
                </g>
            </g>
        </g>
    </g>
</svg>