<?xml version="1.0" encoding="UTF-8"?>
<svg width="25px" height="25px" viewBox="0 0 25 25" version="1.1" xmlns="http://www.w3.org/2000/svg" xmlns:xlink="http://www.w3.org/1999/xlink">
    <!-- Generator: Sketch 51.3 (57544) - http://www.bohemiancoding.com/sketch -->
    <title>Shape</title>
    <desc>Created with Sketch.</desc>
    <defs></defs>
    <g id="icons" stroke="none" stroke-width="1" fill="none" fill-rule="evenodd">
        <path d="M18.750224,21.9827215 L17.3927035,20.625201 L18.3839685,19.6339361 C18.7089191,19.3200882 18.8392411,18.855327 18.724845,18.4182836 C18.610449,17.9812402 18.2691377,17.6399289 17.8320943,17.5255328 C17.3950509,17.4111368 16.9302896,17.5414588 16.6164418,17.8664094 L15.6247602,18.858091 L14.2680731,17.5001539 L17.5002051,14.2676052 L21.982356,18.7501727 L18.750224,21.9827215 Z M4.29583946,18.5660033 L6.4346217,20.7047855 L3.22624001,21.7748017 L4.29583946,18.56642 L4.29583946,18.5660033 Z M6.14253396,9.37503144 L7.13421558,8.3837665 C7.45909137,8.0698419 7.58930313,7.60505032 7.47480397,7.16803445 C7.36030481,6.73101857 7.01891342,6.3897881 6.58184361,6.27549499 C6.1447738,6.16120189 5.68004366,6.29163277 5.36627226,6.61665653 L4.37500732,7.60792147 L3.01790354,6.24998434 L6.25003558,3.0178523 L10.7326031,7.50000318 L7.50005442,10.7325519 L6.14253396,9.37503144 Z M21.8311037,3.16910458 C22.7223084,4.06234385 22.7223084,5.50841402 21.8311037,6.40165329 L21.2502617,6.98291205 L18.0177129,3.74994666 L18.5989717,3.16660454 C19.4921629,2.27567702 20.9379125,2.27567702 21.8311037,3.16660454 L21.8311037,3.16910458 Z M5.51752454,16.2501351 L16.2501863,5.51788997 L19.482735,8.75002202 L8.75007326,19.4826838 L5.51752454,16.2501351 Z M24.633646,17.8668261 L19.2677318,12.5000785 L23.5986304,8.16917993 C24.807546,6.96033871 25.2797211,5.19837452 24.8372917,3.54700223 C24.3948623,1.89562995 23.1050441,0.605732292 21.453699,0.163201234 C19.802354,-0.279329825 18.0403607,0.192736707 16.8314451,1.40157794 L12.5001298,5.73289322 L7.1337989,0.366145664 C6.64566673,-0.121839114 5.85440444,-0.121839114 5.36627226,0.366145664 L0.366196906,5.36622102 C0.131727103,5.60065111 0,5.91863038 0,6.25019268 C0,6.58175497 0.131727103,6.89973424 0.366196906,7.13416433 L5.73336113,12.5000785 L2.86665126,15.3667884 C2.72974414,15.5039461 2.62673337,15.6711602 2.56581339,15.8551291 L0.0657757114,23.3552421 C-0.0830991508,23.8040175 0.033980847,24.2983859 0.368318288,24.6327234 C0.702655728,24.9670608 1.19702416,25.0841408 1.64579952,24.935266 L9.14591256,22.4352283 C9.32992129,22.3741873 9.49713892,22.2710317 9.63425326,22.1339737 L12.5001298,19.2676805 L17.8664607,24.6340114 C18.3545928,25.1219962 19.1458551,25.1219962 19.6339873,24.6340114 L24.6340627,19.6339361 C25.1220474,19.1458039 25.1220474,18.3545416 24.6340627,17.8664094 L24.633646,17.8668261 Z" id="Shape" fill="#000000" fill-rule="nonzero"></path>
    </g>
</svg>